<?xml version="1.0" encoding="UTF-8" standalone="no"?>
<!DOCTYPE svg PUBLIC "-//W3C//DTD SVG 1.1//EN" "http://www.w3.org/Graphics/SVG/1.1/DTD/svg11.dtd">
<svg width="100%" height="100%" viewBox="0 0 389 301" version="1.1" xmlns="http://www.w3.org/2000/svg" xmlns:xlink="http://www.w3.org/1999/xlink" xml:space="preserve" xmlns:serif="http://www.serif.com/" style="fill-rule:evenodd;clip-rule:evenodd;stroke-linejoin:round;stroke-miterlimit:2;">
    <g id="g881" transform="matrix(5.320971,0,0,5.312499,0,0)">
        <g id="g879">
            <clipPath id="_clip1">
                <rect x="0" y="0" width="292" height="56.471"/>
            </clipPath>
            <g clip-path="url(#_clip1)">
                <path id="path861" d="M61.796,4.729C57.074,2.52 52.024,0.914 46.746,0C46.097,1.172 45.34,2.749 44.818,4.003C39.206,3.159 33.646,3.159 28.138,4.003C27.616,2.749 26.841,1.172 26.187,0C20.903,0.914 15.848,2.526 11.126,4.741C1.601,19.134 -0.981,33.17 0.31,47.006C6.627,51.724 12.749,54.59 18.768,56.465C20.254,54.419 21.58,52.245 22.721,49.954C20.547,49.128 18.464,48.108 16.496,46.924C17.018,46.537 17.529,46.133 18.022,45.717C30.026,51.331 43.068,51.331 54.928,45.717C55.427,46.133 55.938,46.537 56.454,46.924C54.48,48.114 52.392,49.133 50.217,49.96C51.359,52.245 52.679,54.425 54.17,56.471C60.195,54.595 66.323,51.73 72.64,47.006C74.155,30.966 70.052,17.06 61.796,4.729ZM24.357,38.497C20.753,38.497 17.799,35.133 17.799,31.037C17.799,26.94 20.69,23.57 24.357,23.57C28.023,23.57 30.978,26.934 30.915,31.037C30.921,35.133 28.023,38.497 24.357,38.497ZM48.593,38.497C44.99,38.497 42.035,35.133 42.035,31.037C42.035,26.94 44.927,23.57 48.593,23.57C52.26,23.57 55.215,26.934 55.151,31.037C55.151,35.133 52.26,38.497 48.593,38.497Z" style="fill:white;fill-rule:nonzero;"/>
            </g>
        </g>
    </g>
</svg>
