<svg width="1600" height="900" viewBox="0 0 1600 900" fill="none" xmlns="http://www.w3.org/2000/svg">
  <g fill="#010208">
    <path d="M332 877C332 792 345 686 365 595C379 532 380 462 371 394C364 339 386 298 426 273C406 246 395 211 395 174C395 90 444 38 513 38C582 38 626 91 626 174C626 213 615 248 593 275C636 304 660 347 654 405C648 462 649 527 665 595C685 683 698 789 699 877H332Z"/>
    <path d="M405 331C435 306 471 296 513 296C555 296 592 307 620 333L650 574L603 877H419L374 574L405 331Z"/>
    <path d="M286 877C293 772 302 660 321 553C336 471 340 393 334 320C329 267 348 228 383 204L422 252C399 284 391 321 398 363L417 475L397 877H286Z" opacity=".92"/>

    <path d="M844 900C846 790 865 672 897 567C917 500 922 433 910 370C899 311 918 263 965 226C942 194 929 154 929 111C929 29 982 -21 1060 -21C1136 -21 1190 30 1190 111C1190 155 1177 195 1153 227C1211 266 1241 318 1230 383C1221 441 1225 503 1244 568C1275 673 1293 790 1295 900H844Z"/>
    <path d="M778 900C791 777 807 651 835 538C854 461 863 391 854 327C846 270 869 228 918 199L973 258C944 301 937 348 950 400L980 527L945 900H778Z" opacity=".97"/>
    <path d="M1207 900L1168 519L1200 390C1213 338 1204 291 1173 250L1229 194C1280 225 1306 269 1299 329C1291 394 1302 464 1322 540C1352 653 1370 779 1383 900H1207Z" opacity=".97"/>

    <path d="M1239 900C1246 816 1260 729 1281 649C1294 601 1297 554 1290 510C1285 473 1297 443 1326 420C1312 399 1304 374 1304 346C1304 292 1337 257 1386 257C1434 257 1468 292 1468 346C1468 375 1460 401 1445 422C1478 446 1495 478 1488 519C1481 559 1486 605 1498 653C1517 733 1530 819 1537 900H1239Z" opacity=".78"/>
  </g>
  <g stroke="#2D5BFF" stroke-opacity=".42">
    <path d="M155 712C406 541 664 480 930 528C1109 560 1295 641 1488 772"/>
    <path d="M87 758C378 566 673 502 971 565C1156 604 1336 684 1512 804"/>
  </g>
</svg>
